:FULLY-SPECIFIED
:FORCE-ALL-JOINTS-BE-3DOF
:DEGREES
1
root -2.95645 16.8291 -36.2757 3.79203 -0.409345 -2.77144
lfemur -18.1857 -3.85478 -7.37129
ltibia 37.6337 0 0
lfoot -17.8071 6.78532 0
ltoes -26.1578 0 0
rfemur -19.1521 0.15077 14.7318
rtibia 40.3652 0 0
rfoot -23.1652 -2.86285 0
rtoes -21.0274 0 0
lowerback 7.02591 2.55716 -1.97249
upperback -3.14202 3.31583 1.27229
thorax -7.43554 1.75645 1.99661
lowerneck -4.68188 -4.04088 -6.84108
upperneck 4.69893 -5.30737 6.47589
head 2.76948 -2.5844 3.14763
lclavicle 1.91563e-15 -9.24349e-15 0
lhumerus -27.0689 -5.33108 89.6453
lradius 25.7364 0 0
lwrist -30.6252 0 0
lhand -28.8405 29.9909 0
lfingers 7.12502 0 0
lthumb -2.19771 59.9594 0
rclavicle 1.91563e-15 -9.24349e-15 0
rhumerus -32.8355 4.71181 -81.727
rradius 32.9783 0 0
rwrist 3.84135 0 0
rhand -24.1523 -25.0894 0
rfingers 7.12502 0 0
rthumb 2.33029 -55.0564 0
2
root -2.95936 16.8292 -36.2826 3.72107 -0.424165 -2.7599
lfemur -18.1468 -3.67819 -7.40461
ltibia 37.6875 -0 0
lfoot -17.8355 6.70089 0.000816614
ltoes -25.8229 0 0
rfemur -19.1397 0.0507119 14.7203
rtibia 40.45 -0 0
rfoot -23.1688 -2.73229 -0.000158304
rtoes -20.6578 0 0
lowerback 7.14444 2.55068 -1.97386
upperback -3.12472 3.30516 1.27404
thorax -7.48528 1.75128 1.99692
lowerneck -4.66241 -4.03258 -6.83855
upperneck 4.68691 -5.29709 6.47605
head 2.76092 -2.57955 3.14786
lclavicle 0 0 0
lhumerus -27.0537 -5.3247 89.6639
lradius 25.7345 -0 0
lwrist -30.6073 0 0
lhand -28.8429 29.9823 7.05035e-06
lfingers 0 0 0
lthumb -2.20004 59.9508 6.82913e-06
rclavicle 0 0 0
rhumerus -32.8201 4.66378 -81.6949
rradius 32.9125 -0 0
rwrist 3.82297 0 0
rhand -24.1044 -25.127 -0.000613965
rfingers 0 0 0
rthumb 2.37659 -55.0933 -0.000581745
3
root -2.96214 16.829 -36.2894 3.64698 -0.439625 -2.74784
lfemur -18.1062 -3.49378 -7.43927
ltibia 37.7437 -0 0
lfoot -17.8651 6.61273 0.00162466
ltoes -25.4732 0 0
rfemur -19.1267 -0.0537622 14.7082
rtibia 40.5386 -0 0
rfoot -23.1725 -2.59597 -0.00031495
rtoes -20.2718 0 0
lowerback 7.26821 2.54392 -1.97531
upperback -3.10666 3.29403 1.27587
thorax -7.53721 1.74589 1.99725
lowerneck -4.64208 -4.02392 -6.83591
upperneck 4.67436 -5.28636 6.47621
head 2.75197 -2.57448 3.1481
lclavicle 0 0 0
lhumerus -27.0379 -5.31804 89.6834
lradius 25.7325 -0 0
lwrist -30.5886 0 0
lhand -28.8454 29.9734 1.40267e-05
lfingers 0 0 0
lthumb -2.20248 59.9419 1.35865e-05
rclavicle 0 0 0
rhumerus -32.804 4.61361 -81.6614
rradius 32.8437 -0 0
rwrist 3.80379 0 0
rhand -24.0543 -25.1662 -0.00122149
rfingers 0 0 0
rthumb 2.42494 -55.1318 -0.00115738
4
root -2.96479 16.8284 -36.296 3.57 -0.45567 -2.73528
lfemur -18.0642 -3.30215 -7.47514
ltibia 37.8021 -0 0
lfoot -17.8959 6.52114 0.0024159
ltoes -25.1099 0 0
rfemur -19.1132 -0.162303 14.6957
rtibia 40.6306 -0 0
rfoot -23.1763 -2.45433 -0.00046834
rtoes -19.8708 0 0
lowerback 7.39679 2.5369 -1.97683
upperback -3.0879 3.28245 1.27777
thorax -7.59116 1.74029 1.9976
lowerneck -4.62097 -4.01492 -6.83317
upperneck 4.66132 -5.27521 6.47638
head 2.74268 -2.56922 3.14835
lclavicle 0 0 0
lhumerus -27.0214 -5.31114 89.7035
lradius 25.7305 -0 0
lwrist -30.5692 0 0
lhand -28.8481 29.9641 2.08577e-05
lfingers 0 0 0
lthumb -2.20501 59.9325 2.02032e-05
rclavicle 0 0 0
rhumerus -32.7873 4.56148 -81.6267
rradius 32.7723 -0 0
rwrist 3.78385 0 0
rhand -24.0023 -25.207 -0.00181636
rfingers 0 0 0
rthumb 2.47517 -55.1718 -0.00172104
5
root -2.9673 16.8276 -36.3024 3.49037 -0.472247 -2.72227
lfemur -18.021 -3.10393 -7.51208
ltibia 37.8625 -0 0
lfoot -17.9277 6.42641 0.00318249
ltoes -24.7341 0 0
rfemur -19.0992 -0.274562 14.6827
rtibia 40.7258 -0 0
rfoot -23.1803 -2.30785 -0.000616953
rtoes -19.4561 0 0
lowerback 7.52978 2.52964 -1.97842
upperback -3.0685 3.27048 1.27972
thorax -7.64696 1.73449 1.99797
lowerneck -4.59912 -4.00561 -6.83033
upperneck 4.64784 -5.26368 6.47655
head 2.73307 -2.56378 3.14861
lclavicle 0 0 0
lhumerus -27.0043 -5.304 89.7244
lradius 25.7284 -0 0
lwrist -30.5491 0 0
lhand -28.8508 29.9545 2.74758e-05
lfingers 0 0 0
lthumb -2.20763 59.9229 2.66137e-05
rclavicle 0 0 0
rhumerus -32.77 4.50756 -81.5907
rradius 32.6984 -0 0
rwrist 3.76323 0 0
rhand -23.9485 -25.2491 -0.0023927
rfingers 0 0 0
rthumb 2.52713 -55.2131 -0.00226713
6
root -2.96969 16.8264 -36.3086 3.40835 -0.489303 -2.70885
lfemur -17.9765 -2.89973 -7.54996
ltibia 37.9247 -0 0
lfoot -17.9605 6.32883 0.00391705
ltoes -24.347 0 0
rfemur -19.0847 -0.390189 14.6693
rtibia 40.8238 -0 0
rfoot -23.1844 -2.15696 -0.000759361
rtoes -19.0289 0 0
lowerback 7.66677 2.52217 -1.98007
upperback -3.04851 3.25815 1.28173
thorax -7.70444 1.72852 1.99835
lowerneck -4.57662 -3.99602 -6.82739
upperneck 4.63395 -5.2518 6.47672
head 2.72317 -2.55817 3.14887
lclavicle 0 0 0
lhumerus -26.9868 -5.29665 89.746
lradius 25.7262 -0 0
lwrist -30.5285 0 0
lhand -28.8536 29.9446 3.38174e-05
lfingers 0 0 0
lthumb -2.21033 59.913 3.27563e-05
rclavicle 0 0 0
rhumerus -32.7523 4.452 -81.5537
rradius 32.6223 -0 0
rwrist 3.74199 0 0
rhand -23.8931 -25.2926 -0.00294496
rfingers 0 0 0
rthumb 2.58064 -55.2557 -0.00279041
7
root -2.97195 16.825 -36.3147 3.32418 -0.506785 -2.69505
lfemur -17.931 -2.69016 -7.58867
ltibia 37.9886 -0 0
lfoot -17.9942 6.2287 0.00461275
ltoes -23.9499 0 0
rfemur -19.0698 -0.508835 14.6555
rtibia 40.9244 -0 0
rfoot -23.1886 -2.00212 -0.000894236
rtoes -18.5905 0 0
lowerback 7.80734 2.51451 -1.98179
upperback -3.028 3.2455 1.28379
thorax -7.76343 1.7224 1.99875
lowerneck -4.55353 -3.98618 -6.82438
upperneck 4.61969 -5.23961 6.47689
head 2.71302 -2.55242 3.14914
lclavicle 0 0 0
lhumerus -26.9687 -5.28911 89.768
lradius 25.724 -0 0
lwrist -30.5072 0 0
lhand -28.8564 29.9345 3.98233e-05
lfingers 0 0 0
lthumb -2.2131 59.9028 3.85738e-05
rclavicle 0 0 0
rhumerus -32.7342 4.39498 -81.5158
rradius 32.5442 -0 0
rwrist 3.7202 0 0
rhand -23.8362 -25.3371 -0.00346799
rfingers 0 0 0
rthumb 2.63556 -55.2995 -0.00328599
